#define ac_01_width 8
#define ac_01_height 8
static char ac_01_bits[] = {
  0xCF, 0xD7, 0x1B, 0xD8, 0xD8, 0x1B, 0xD7, 0xCF, };
