#define arch_width 10
#define arch_height 10
static char arch_bits[] = {
  0xEF, 0x03, 0xEF, 0x03, 0xC7, 0x03, 0xC7, 0x03, 0x83, 0x03, 0x83, 0x03, 
  0x11, 0x03, 0x39, 0x03, 0x38, 0x02, 0xFE, 0x02, };
