#define fs_01_width 8
#define fs_01_height 8
static char fs_01_bits[] = {
  0xB9, 0x66, 0x43, 0x99, 0x99, 0xC2, 0x66, 0x9D, };
