#define mem_width 8
#define mem_height 8
static char mem_bits[] = {
  0x55, 0xFF, 0x01, 0x01, 0x01, 0x01, 0xFF, 0x55, };
