#define net_up_03_width 8
#define net_up_03_height 8
static char net_up_03_bits[] = {
  0xEF, 0xC7, 0x83, 0x01, 0xC7, 0xC7, 0xC7, 0xC7, };
