#define pacman_width 8
#define pacman_height 8
static char pacman_bits[] = {
  0xC3, 0x91, 0x18, 0x00, 0xF8, 0xE0, 0x81, 0xC3, };
