#define wifi_01_width 8
#define wifi_01_height 8
static char wifi_01_bits[] = {
  0x7F, 0x5F, 0x57, 0x54, 0x54, 0x57, 0x5F, 0x7F, };
