#define wired_width 8
#define wired_height 8
static char wired_bits[] = {
  0x00, 0x7E, 0x66, 0x42, 0x42, 0x42, 0x7E, 0x00, };
